<svg width="990" height="175" viewBox="0 0 990 175" fill="none" xmlns="http://www.w3.org/2000/svg">
<path d="M23.5906 101.853C10.5619 85.4657 13.2845 61.6194 29.6717 48.5906C46.0589 35.5619 69.9053 38.2845 82.934 54.6717L115.995 96.2554C129.024 112.643 126.301 136.489 109.914 149.518C93.527 162.546 69.6807 159.824 56.6519 143.437L23.5906 101.853Z" fill="#6CFFC1"/>
<path d="M87.6 57.0916C99.06 39.5713 122.553 34.6586 140.073 46.1186C157.594 57.5786 162.506 81.0716 151.046 98.5919L121.966 143.051C110.506 160.571 87.0127 165.484 69.4925 154.024C51.9723 142.564 47.0595 119.07 58.5195 101.55L87.6 57.0916Z" fill="#36B697"/>
<path d="M208.992 142.024C202.763 142.024 197.216 140.957 192.352 138.824C187.488 136.691 183.648 133.789 180.832 130.12C178.016 126.365 176.437 122.184 176.096 117.576H197.728C197.984 120.051 199.136 122.056 201.184 123.592C203.232 125.128 205.749 125.896 208.736 125.896C211.467 125.896 213.557 125.384 215.008 124.36C216.544 123.251 217.312 121.843 217.312 120.136C217.312 118.088 216.245 116.595 214.112 115.656C211.979 114.632 208.523 113.523 203.744 112.328C198.624 111.133 194.357 109.896 190.944 108.616C187.531 107.251 184.587 105.16 182.112 102.344C179.637 99.4427 178.4 95.56 178.4 90.696C178.4 86.6 179.509 82.888 181.728 79.56C184.032 76.1467 187.36 73.4587 191.712 71.496C196.149 69.5333 201.397 68.552 207.456 68.552C216.416 68.552 223.456 70.7707 228.576 75.208C233.781 79.6453 236.768 85.5333 237.536 92.872H217.312C216.971 90.3973 215.861 88.4347 213.984 86.984C212.192 85.5333 209.803 84.808 206.816 84.808C204.256 84.808 202.293 85.32 200.928 86.344C199.563 87.2827 198.88 88.6053 198.88 90.312C198.88 92.36 199.947 93.896 202.08 94.92C204.299 95.944 207.712 96.968 212.32 97.992C217.611 99.3573 221.92 100.723 225.248 102.088C228.576 103.368 231.477 105.501 233.952 108.488C236.512 111.389 237.835 115.315 237.92 120.264C237.92 124.445 236.725 128.2 234.336 131.528C232.032 134.771 228.661 137.331 224.224 139.208C219.872 141.085 214.795 142.024 208.992 142.024ZM261.039 62.152C257.199 62.152 254.042 61.0427 251.567 58.824C249.178 56.52 247.983 53.704 247.983 50.376C247.983 46.9627 249.178 44.1467 251.567 41.928C254.042 39.624 257.199 38.472 261.039 38.472C264.794 38.472 267.866 39.624 270.255 41.928C272.73 44.1467 273.967 46.9627 273.967 50.376C273.967 53.704 272.73 56.52 270.255 58.824C267.866 61.0427 264.794 62.152 261.039 62.152ZM271.919 69.576V141H250.031V69.576H271.919ZM377.637 68.808C386.512 68.808 393.552 71.496 398.757 76.872C404.048 82.248 406.693 89.7147 406.693 99.272V141H384.933V102.216C384.933 97.608 383.696 94.0667 381.221 91.592C378.832 89.032 375.504 87.752 371.237 87.752C366.97 87.752 363.6 89.032 361.125 91.592C358.736 94.0667 357.541 97.608 357.541 102.216V141H335.781V102.216C335.781 97.608 334.544 94.0667 332.069 91.592C329.68 89.032 326.352 87.752 322.085 87.752C317.818 87.752 314.448 89.032 311.973 91.592C309.584 94.0667 308.389 97.608 308.389 102.216V141H286.501V69.576H308.389V78.536C310.608 75.5493 313.509 73.2027 317.093 71.496C320.677 69.704 324.73 68.808 329.253 68.808C334.629 68.808 339.408 69.96 343.589 72.264C347.856 74.568 351.184 77.8533 353.573 82.12C356.048 78.1947 359.418 74.9947 363.685 72.52C367.952 70.0453 372.602 68.808 377.637 68.808ZM442.609 68.68V86.856H471.921V103.752H442.609V123.464H475.761V141H420.721V51.144H475.761V68.68H442.609ZM484.979 95.944C484.979 87.0693 486.899 79.176 490.739 72.264C494.579 65.2667 499.912 59.848 506.739 56.008C513.651 52.0827 521.459 50.12 530.163 50.12C540.83 50.12 549.96 52.936 557.555 58.568C565.15 64.2 570.227 71.88 572.787 81.608H548.723C546.931 77.8533 544.371 74.9947 541.043 73.032C537.8 71.0693 534.088 70.088 529.907 70.088C523.166 70.088 517.704 72.4347 513.523 77.128C509.342 81.8213 507.251 88.0933 507.251 95.944C507.251 103.795 509.342 110.067 513.523 114.76C517.704 119.453 523.166 121.8 529.907 121.8C534.088 121.8 537.8 120.819 541.043 118.856C544.371 116.893 546.931 114.035 548.723 110.28H572.787C570.227 120.008 565.15 127.688 557.555 133.32C549.96 138.867 540.83 141.64 530.163 141.64C521.459 141.64 513.651 139.72 506.739 135.88C499.912 131.955 494.579 126.536 490.739 119.624C486.899 112.712 484.979 104.819 484.979 95.944ZM686.671 51.144V141H664.783V87.112L644.687 141H627.023L606.799 86.984V141H584.911V51.144H610.767L635.983 113.352L660.943 51.144H686.671ZM743.627 141.896C735.179 141.896 727.414 139.933 720.331 136.008C713.334 132.083 707.744 126.621 703.563 119.624C699.467 112.541 697.419 104.605 697.419 95.816C697.419 87.0267 699.467 79.1333 703.563 72.136C707.744 65.1387 713.334 59.6773 720.331 55.752C727.414 51.8267 735.179 49.864 743.627 49.864C752.075 49.864 759.798 51.8267 766.795 55.752C773.878 59.6773 779.424 65.1387 783.435 72.136C787.531 79.1333 789.579 87.0267 789.579 95.816C789.579 104.605 787.531 112.541 783.435 119.624C779.339 126.621 773.792 132.083 766.795 136.008C759.798 139.933 752.075 141.896 743.627 141.896ZM743.627 121.928C750.795 121.928 756.512 119.539 760.779 114.76C765.131 109.981 767.307 103.667 767.307 95.816C767.307 87.88 765.131 81.5653 760.779 76.872C756.512 72.0933 750.795 69.704 743.627 69.704C736.374 69.704 730.571 72.0507 726.219 76.744C721.952 81.4373 719.819 87.7947 719.819 95.816C719.819 103.752 721.952 110.109 726.219 114.888C730.571 119.581 736.374 121.928 743.627 121.928Z" fill="white"/>
<path d="M23.5906 101.853C10.5619 85.4657 13.2845 61.6194 29.6717 48.5906C46.0589 35.5619 69.9053 38.2845 82.934 54.6717L115.995 96.2554C129.024 112.643 126.301 136.489 109.914 149.518C93.527 162.546 69.6807 159.824 56.6519 143.437L23.5906 101.853Z" fill="#6CFFC1"/>
<path d="M87.6 57.0916C99.06 39.5713 122.553 34.6586 140.073 46.1186C157.594 57.5786 162.506 81.0716 151.046 98.5919L121.966 143.051C110.506 160.571 87.0127 165.484 69.4925 154.024C51.9723 142.564 47.0595 119.07 58.5195 101.55L87.6 57.0916Z" fill="#36B697"/>
<path d="M23.5906 101.853C10.5619 85.4657 13.2845 61.6194 29.6717 48.5906C46.0589 35.5619 69.9053 38.2845 82.934 54.6717L115.995 96.2554C129.024 112.643 126.301 136.489 109.914 149.518C93.527 162.546 69.6807 159.824 56.6519 143.437L23.5906 101.853Z" fill="#6CFFC1"/>
<path d="M87.6 57.0916C99.06 39.5713 122.553 34.6586 140.073 46.1186C157.594 57.5786 162.506 81.0716 151.046 98.5919L121.966 143.051C110.506 160.571 87.0127 165.484 69.4925 154.024C51.9723 142.564 47.0595 119.07 58.5195 101.55L87.6 57.0916Z" fill="#36B697"/>
<path d="M23.5906 101.853C10.5619 85.4657 13.2845 61.6194 29.6717 48.5906C46.0589 35.5619 69.9053 38.2845 82.934 54.6717L115.995 96.2554C129.024 112.643 126.301 136.489 109.914 149.518C93.527 162.546 69.6807 159.824 56.6519 143.437L23.5906 101.853Z" fill="#6CFFC1"/>
<path d="M87.6 57.0916C99.06 39.5713 122.553 34.6586 140.073 46.1186C157.594 57.5786 162.506 81.0716 151.046 98.5919L121.966 143.051C110.506 160.571 87.0127 165.484 69.4925 154.024C51.9723 142.564 47.0595 119.07 58.5195 101.55L87.6 57.0916Z" fill="#36B697"/>
<path d="M23.5906 101.853C10.5619 85.4657 13.2845 61.6194 29.6717 48.5906C46.0589 35.5619 69.9053 38.2845 82.934 54.6717L115.995 96.2554C129.024 112.643 126.301 136.489 109.914 149.518C93.527 162.546 69.6807 159.824 56.6519 143.437L23.5906 101.853Z" fill="#6CFFC1"/>
<path d="M87.6 57.0916C99.06 39.5713 122.553 34.6586 140.073 46.1186C157.594 57.5786 162.506 81.0716 151.046 98.5919L121.966 143.051C110.506 160.571 87.0127 165.484 69.4925 154.024C51.9723 142.564 47.0595 119.07 58.5195 101.55L87.6 57.0916Z" fill="#36B697"/>
<path d="M23.5906 101.853C10.5619 85.4657 13.2845 61.6194 29.6717 48.5906C46.0589 35.5619 69.9053 38.2845 82.934 54.6717L115.995 96.2554C129.024 112.643 126.301 136.489 109.914 149.518C93.527 162.546 69.6807 159.824 56.6519 143.437L23.5906 101.853Z" fill="#6CFFC1"/>
<path d="M87.6 57.0916C99.06 39.5713 122.553 34.6586 140.073 46.1186C157.594 57.5786 162.506 81.0716 151.046 98.5919L121.966 143.051C110.506 160.571 87.0127 165.484 69.4925 154.024C51.9723 142.564 47.0595 119.07 58.5195 101.55L87.6 57.0916Z" fill="#36B697"/>
<path d="M23.5906 101.853C10.5619 85.4657 13.2845 61.6194 29.6717 48.5906C46.0589 35.5619 69.9053 38.2845 82.934 54.6717L115.995 96.2554C129.024 112.643 126.301 136.489 109.914 149.518C93.527 162.546 69.6807 159.824 56.6519 143.437L23.5906 101.853Z" fill="#6CFFC1"/>
<path d="M87.6 57.0916C99.06 39.5713 122.553 34.6586 140.073 46.1186C157.594 57.5786 162.506 81.0716 151.046 98.5919L121.966 143.051C110.506 160.571 87.0127 165.484 69.4925 154.024C51.9723 142.564 47.0595 119.07 58.5195 101.55L87.6 57.0916Z" fill="#36B697"/>
<path d="M23.5906 101.853C10.5619 85.4657 13.2845 61.6194 29.6717 48.5906V48.5906C46.0589 35.5619 69.9053 38.2845 82.934 54.6717L115.995 96.2554C129.024 112.643 126.301 136.489 109.914 149.518V149.518C93.527 162.546 69.6807 159.824 56.6519 143.437L23.5906 101.853Z" fill="#8E8FFA"/>
<path d="M87.6 57.0916C99.06 39.5713 122.553 34.6586 140.073 46.1186V46.1186C157.594 57.5786 162.506 81.0716 151.046 98.5919L121.966 143.051C110.506 160.571 87.0127 165.484 69.4925 154.024V154.024C51.9723 142.564 47.0595 119.07 58.5195 101.55L87.6 57.0916Z" fill="#190482"/>
</svg>
